<?xml version="1.0" encoding="utf-8"?>
<!-- Generator: Adobe Illustrator 26.1.0, SVG Export Plug-In . SVG Version: 6.00 Build 0)  -->
<svg version="1.1" id="Layer_1" xmlns="http://www.w3.org/2000/svg" xmlns:xlink="http://www.w3.org/1999/xlink" x="0px" y="0px"
	 viewBox="0 0 800 237" style="enable-background:new 0 0 800 237;" xml:space="preserve">
<g id="_x23_000000ff">
	<path d="M418.2,1.2c5.7-1.5,12.5-0.4,16.3,4.4c5.7,6.5,3.8,17.9-3.9,22c-7.4,4.8-18.6,1-21.2-7.4C406.4,12.8,410.7,3.6,418.2,1.2z"
		/>
	<path d="M26.3,24.2C40,11.5,58.3,3.9,77,3.5c21.6-0.9,43.3,7.6,58.5,23c1,1,2.2,2,2.6,3.5c-8.4,4.2-15.9,10.5-21.3,18.2
		c-1.4-0.6-2.5-1.6-3.6-2.5C100.5,34.7,82,31,65.9,36.1C53.2,40,42.3,49.1,36,60.8c-5.6,10.3-7.1,22.7-4.9,34.1
		c3.6,17.4,17,32.5,34,37.9c18,6.3,39.1,0.6,52-13.3c6,7,13.2,13,21.4,17.3c0,0.3,0.1,0.8,0.2,1.1c-10.3,10.7-23.4,18.8-37.8,22.6
		c-15.2,4.2-31.5,3.8-46.4-1.4c-16-5.4-30.1-16.2-39.8-30.1C4.1,113.8-0.6,94.6,1.1,76C2.3,56.3,11.8,37.5,26.3,24.2z"/>
	<path d="M546.7,3.5c8.2,0,16.4-0.1,24.5,0c-0.1,13.5,0,27,0,40.5c0,2-0.3,4.2,0.4,6.1c11.4-15,34.8-17.3,50-6.7
		c11.1,7.5,17,20.7,18.3,33.7c1.4,13.2-0.2,27.2-7.2,38.7c-4.8,8-12.8,14.1-21.8,16.6c-6.2,1.8-12.8,1.6-19.1,0.8
		c-4.5-1.2-8.8-2.8-12.7-5.5c-3.1-1.8-5.2-4.8-7.9-7c-0.1,3.3-0.1,6.6,0,9.9c-8.2,0.1-16.4,0.2-24.6-0.1
		C546.8,88.2,546.8,45.9,546.7,3.5 M586.1,59.1c-4.8,1.2-9.3,3.7-12.6,7.3c-0.9,1.1-2.4,2-2.2,3.6c0,10-0.1,20,0,30
		c-0.2,1.8,1.6,2.9,2.7,4.1c6.2,6,15.6,8.8,24,6.4c4.9-1.2,9-4.5,11.9-8.5c4.5-6.8,5.4-15.4,4.3-23.3c-1.4-6.7-4.6-13.6-10.7-17.1
		C598.3,58.4,591.9,57.5,586.1,59.1z"/>
	<path d="M316.9,18.1c0.1-4.9-0.7-9.9,0.5-14.6c8,0.4,16,0,24.1,0.2c0,25.2,0,50.4,0,75.6c1.7-1.3,3-3,4.2-4.7
		c10.1-12,20.1-24,30.1-36c10.1,0.1,20.2-0.2,30.2,0.1c-12.3,14-24.6,27.9-36.8,42c12.7,16.6,25.1,33.4,37.8,50
		c-10.3,0.3-20.6,0.2-30.9,0.1c-7.9-11.7-16-23.2-24-34.8c-3.4,3.7-6.8,7.6-10.5,11c-0.3,7.9-0.1,15.9-0.1,23.8
		c-8.3-0.1-16.5,0.3-24.8-0.2c0.1-7.9,0-15.8,0.1-23.7c0.7-6.3-0.6-12.6,0.2-18.9c-0.7-4.3,0.4-8.6-0.1-13c-0.1-4.7-0.3-9.4,0.2-14
		c-0.4-7.3-0.5-14.7,0-22c-0.5-3.3-0.5-6.7,0-10C316.3,25.4,317.5,21.7,316.9,18.1z"/>
	<path d="M754.2,14.5c8.1,0,16.2-0.1,24.3,0c0,8.5,0,17.1,0,25.6c6.2-0.1,12.5-0.2,18.8-0.1c0,7.1,0,14.3,0.1,21.5
		c-6.3,0-12.6,0-18.9,0c0,14.2,0,28.4,0,42.6c-0.1,3,1.6,5.8,4,7.6c3.8,2.7,9.3,1.6,12.8-1.2c1.6,6,3.3,12.1,4.7,18.2v0.8
		c-9.8,6-22.4,6.6-33.1,2.8c-8.8-3.5-13-13.2-12.9-22.2c0.6-16.2,0.1-32.4,0.3-48.6c-5.2-0.1-10.3,0-15.5-0.1c0-7.1,0-14.1,0-21.2
		c5.2-0.1,10.3,0,15.5-0.3C754.2,31.4,754.3,22.9,754.2,14.5z"/>
	<path d="M443.7,66.3c7.3-21.1,31.2-35.6,53.3-30.5c16.2,3.7,28.8,16.6,35.7,31.3C516.4,76.4,500.3,85.7,484,95
		c-3.3,1.9-6.5,3.9-9.9,5.4c0.3,2.1,2.1,3.3,3.6,4.6c6.3,5.1,15.2,6.9,22.9,4.2c10.6-3.7,19-12.5,23-22.9c5.4,3.3,11.4,5.6,17,8.6
		c-6.8,17.5-22.5,30.8-40.5,35.5c-19.8,5-42.2-4.7-51.7-22.9C440.6,95.5,438.9,79.8,443.7,66.3 M469.7,61.7
		c-6.4,6.4-7.8,16.8-3.9,24.9c2.4-1.7,4.9-3.1,7.4-4.5c10.4-6,20.8-12.1,31.3-18.1c-3.9-5.7-10.4-10-17.5-9.8
		C480.4,53.8,474.2,57.2,469.7,61.7z"/>
	<path d="M154.7,35.9c10.4-1.6,21.4-0.3,30.7,4.6c13.2,6.7,23.1,19.8,25.5,34.4c2.3,13-0.5,27-8.5,37.5c-6.8,9.6-17.5,16.3-29,18.8
		c-13.9,2.8-29.2-0.6-40.4-9.5c-8.1-6.3-14.1-15.3-16.7-25.3c-3.5-12.7-1.6-26.7,5.3-37.9C128.6,46.6,141.1,38.2,154.7,35.9
		 M158.4,58.6C146.2,61.2,137,73.6,138.6,86c1.3,12.5,12.8,23,25.4,22.8c11.9,0.3,22.8-9.2,24.9-20.8c2.1-10.2-3.3-21.4-12.3-26.5
		C171.1,58.1,164.5,57.6,158.4,58.6z"/>
	<path d="M254.6,36c9.7-1.8,19.9-0.8,28.9,3.2c14.6,6.2,25.4,20.1,28.1,35.6c2.2,11.3,0.1,23.4-5.7,33.4
		c-9.2,16-28.2,26.1-46.7,23.5c-14.8-1-28.6-9.8-36.4-22.3c-7.6-11.8-9.4-26.9-5.3-40.2C222.5,52.5,237.3,39.2,254.6,36 M258.6,58.7
		c-7.5,2-14.3,7.2-17.3,14.5c-3.7,7.9-2.6,17.8,2.6,24.8c5.1,7.3,14.3,11.6,23.2,10.6c12.3-1,22.8-12.3,22.7-24.6
		c0.6-10-5.8-19.8-14.9-23.7C269.8,57.8,264,57.8,258.6,58.7z"/>
	<path d="M684.5,35.7c12.1-1.8,24.9,0.8,35,7.7c12.1,8.1,20.2,21.9,21.1,36.4c1,12.2-2.6,24.8-10.4,34.2
		c-11.7,15.1-32.8,21.4-51,16.2c-15.6-4.2-28.6-16.8-33.3-32.3c-4.3-13.3-2.3-28.4,5.2-40.2C658.2,46,670.9,37.9,684.5,35.7
		 M688.5,58.7C677.2,61,668.3,71.5,668.2,83c-0.6,13.1,10.7,25.3,23.7,25.8c9.3,0.9,18.8-4.2,23.4-12.4c6.9-11,3.2-27.1-7.8-33.9
		C702.1,58.6,695,57.5,688.5,58.7z"/>
	<path d="M410.5,132.3c0-30.8,0-61.7,0-92.5c7.9,0,15.8-0.1,23.8,0c0,29.4,0,58.8,0,88.2c0,1.5,0.1,3.1-0.6,4.5
		C426,132.1,418.2,132.3,410.5,132.3z"/>
	<path d="M700.9,158c4.2-2.7,10.8,2.2,7.9,6.9c-1.4,3.1-5.2,3.4-8.1,2.5c-1.7-0.9-2.3-2.8-3.1-4.4C698.2,161,698.8,158.8,700.9,158z
		"/>
	<path d="M215.1,159.8c3.1-0.1,6.1-0.1,9.2,0c0.1,7.4-0.1,14.9,0,22.4c1.9-2.9,4.1-5.9,7.6-7.1c6.8-2.2,15.2-0.3,19.6,5.5
		c5,6.2,5.7,14.8,4.6,22.5c-1,6.8-4.8,13.7-11.4,16.3c-5.5,2-12.4,2-16.9-2.1c-1.6-1.2-2.1-3.2-3.8-4.2c-0.1,2.2,0,4.4,0,6.7
		c-2.9,0-5.9,0-8.8,0C215.2,199.7,215.1,179.7,215.1,159.8 M232.1,182.2c-5.7,1.8-8,8.3-8,13.7c-0.2,5.9,0.9,13.3,6.9,16.1
		c3.9,1.4,9.1,1.3,12-2c3.5-3.3,4.5-8.4,4.4-13c0.1-4.2-1-8.5-3.6-11.9C241,182,236.2,180.6,232.1,182.2z"/>
	<path d="M327.8,159.8c3.1,0,6.3,0,9.4,0c0.1,13.1,0,26.2,0,39.2c-0.2,4.1,1.9,8.1,5.2,10.5c8,6.1,22.6,2.4,23.8-8.6
		c0.4-13.7-0.1-27.5,0.2-41.2c3.1,0.1,6.1,0.1,9.2,0c0.1,13.4,0,26.9,0,40.4c0,8.3-5.5,16.4-13.4,19.1c-8.1,2.9-17.7,2.5-25.1-2.1
		c-5.9-3.5-9.2-10.3-9.3-17.1C327.7,186.6,327.8,173.2,327.8,159.8z"/>
	<path d="M643.6,164.5c2.8-1.3,6.1-0.4,9.1-0.7c0.1,3.6,0.2,7.2,0,10.8c3,0.2,6.1,0.2,9.2,0.1c0.4,2.4,0.4,4.8,0.4,7.1
		c-3.2,0.3-6.4-0.4-9.5,0.5c0.3,8.3,0,16.6,0.2,24.8c0.1,2,0.8,4.7,3.2,5.2c1.8,0.3,3.7,0.1,5.5,0c0,2.5,2.2,5.6,0.5,7.8
		c-3.9,0.6-8.2,0.8-11.8-1c-4.3-1.8-6.6-6.6-6.5-11c0-8.8,0.1-17.6,0-26.3c-2.2,0-4.3,0-6.4,0c0-2.4,0-4.8,0.1-7.1
		c2.1,0,4.3,0,6.4,0C643.8,171.2,643.9,167.9,643.6,164.5z"/>
	<path d="M388.4,179.5c4.4-4.9,11.6-5.8,17.7-5.1c6.3,0.5,12.6,5,13.6,11.4c-2.5,1-5.2,1.1-7.8,1.7c-1.4-3.6-4.9-6.4-8.9-6.1
		c-3.6-0.1-8.5,1.5-8.8,5.7c-0.3,2.5,1.8,4.2,3.9,5c6.3,2.1,13.3,2.3,18.9,6.2c3.7,3.1,4.5,8.5,3.1,12.9c-2.2,5.7-8.3,8.7-14.1,9.4
		c-5.1,0.5-10.4,0.2-15-2.3c-3.8-2.1-6.7-5.9-6.8-10.3c2.7-0.2,5.5-0.5,8.1-1.1c1.1,2.2,2.2,4.8,4.6,5.7c3.6,1.6,7.6,1.1,11.3,0
		c2.1-1.4,4.1-3.8,3.2-6.6c-0.9-1.8-2.5-3.2-4.5-3.6c-5.8-1.9-12.5-1.7-17.5-5.6C384.2,192.6,383.8,184.1,388.4,179.5z"/>
	<path d="M432.1,180.1c7.9-8.3,23.4-8.1,30.5,1.2c2,2.4,2.9,5.5,3.8,8.4c-0.5,0.9-1.8,2.4,0.2,2.1c0.3,2.6,0.6,5.3,0.6,8
		c-10.7,0.8-21.4,0-32.1,0.4c0.4,2.8,0.8,5.9,2.5,8.2c3.2,4.5,9.5,6,14.6,4.2c3.1-0.7,4.7-3.7,6.6-5.9c2.5,1,5.3,1.2,7.9,1.9
		c-2,6.8-8.6,11.5-15.6,12.1c-5.1,0.4-10.5,0.2-14.9-2.6c-5.2-2.7-8.2-8.2-9.4-13.8C425.1,195.9,426.4,186.6,432.1,180.1 M435,193.3
		c7.8,0,15.5,0,23.3,0c-0.2-5-3.2-10.2-8.4-11.3C442.6,179.7,435.3,186,435,193.3z"/>
	<path d="M488.2,175.9c3.3-2.1,7.3-2,11-1.5c-0.1,2.7-0.5,5.5,0.1,8.2c-2.8,0.1-5.7-0.6-8.5,0.3c-4.1,1-7.3,4.9-7.2,9.2
		c0,9.2,0,18.5,0,27.7c-3,0-6,0-9,0c0-15,0-30,0-45c2.9,0,5.8,0,8.7,0c0,2.5,0.1,5-0.4,7.4C484.4,179.8,485.7,177.2,488.2,175.9z"/>
	<path d="M506.4,180.4c6.9-7.8,20.2-8.4,28.2-2c3.4,2.7,5,6.8,5.9,10.9c-2.9,0.1-5.8,0.1-8.7,0.1c-1.2-2.7-2.6-5.6-5.6-6.7
		c-5.3-2.6-12.2,0-14.7,5.4c-2.8,6.2-2.6,13.8,0.7,19.8c3,4.9,9.7,6.6,14.8,4c2.3-1.6,3.9-3.9,4.7-6.6c2.9,0,5.9-0.1,8.8,0
		c-0.9,5.4-3.9,10.6-8.8,13.1c-6.4,3.2-14.4,2.9-20.8-0.3c-6.6-4-10.2-11.7-10.3-19.2C500.2,192.4,501.7,185.3,506.4,180.4z"/>
	<path d="M559.2,175.2c7.9-2.5,17.9-0.7,22.9,6.4c3.8,5.2,4.2,11.8,4.4,18c-7.7,1.1-15.7,0.2-23.4,0.5c-2.9,0.2-5.8,0-8.6-0.3
		c0,4.3,1.5,9.1,5.3,11.6c3.9,2.4,9.1,2.7,13.2,0.6c2.2-1.2,3.4-3.4,4.9-5.2c2.6,0.9,5.3,1.2,8,1.7c-1.5,5.9-6.7,10.3-12.5,11.6
		c-7.2,1.6-15.4,0.8-21.1-4.4c-6.7-6.1-8-16.2-6.3-24.7C547.2,183.9,552.3,177.5,559.2,175.2 M557.5,185.4c-2,2.1-2.9,5-3.2,7.8
		c7.8,0,15.5,0,23.2,0c-0.3-3-1.1-6.2-3.4-8.4C569.8,180.1,561.5,180.7,557.5,185.4z"/>
	<path d="M604.6,178.6c4.6-4.9,12.2-5.6,18.2-3.2c5.6,2.2,8.6,8.4,8.7,14.2c0.2,10,0,20,0.1,30c-3,0-6.1,0-9.1,0
		c-0.1-9.2,0-18.5,0-27.7c0.2-3.9-1.8-8.2-5.6-9.5c-4.6-1.8-10.5-0.1-12.8,4.5c-1.3,2.5-1.6,5.4-1.5,8.1c0,8.2,0,16.4,0,24.6
		c-3,0.1-6,0.1-9,0c0-15,0-30,0-45c2.9,0,5.8,0,8.8,0c0,2.5-0.1,5-0.1,7.6C603.1,181,603.9,179.9,604.6,178.6z"/>
	<path d="M678.6,182c1.9-6.5,9.5-9.1,15.7-7.5c-0.4,2.7-0.2,5.4-0.2,8.2c-3.6-0.3-7.6-0.9-10.7,1.3c-2.3,1.3-3.5,3.6-4.5,5.9
		c-0.3,9.9-0.1,19.9-0.1,29.8c-3,0-6,0-9-0.1c0.1-15,0-30,0-45c2.9,0,5.8,0,8.8,0C678.2,177.1,678.3,179.6,678.6,182z"/>
	<path d="M719.2,183.3c6.6-11.2,24.7-12.4,32.8-2.4c2.1,2.4,2.9,5.5,3.4,8.6c-2.9,0-5.8,0-8.7,0c-1.1-2.2-2-4.7-4.2-6
		c-4.8-3.1-11.9-1.7-15,3.2c-3.8,6.1-3.9,14.2-0.6,20.6c2.1,4.5,7.6,7.1,12.3,5.7c3.8-0.6,6.5-3.9,7.5-7.5c2.9,0,5.8,0,8.8,0
		c-0.7,6.8-5.7,12.8-12.3,14.6c-7.5,1.9-16.4,0.6-21.8-5.4C714.1,206.1,713.8,192.9,719.2,183.3z"/>
	<path d="M767.3,177.3c5.4-3.4,12.2-3.8,18.2-2.5c5.4,1.2,10,5.6,10.8,11.2c-2.8,0.4-5.5,0.9-8.2,1.3c-1.8-7.2-13.2-8.2-16.9-2.2
		c-1.8,2.6,0.5,5.7,3.1,6.6c6.1,2.5,13.3,2.2,18.8,6.2c4.4,3,5.4,9.4,3,14c-2.1,4.8-7.3,7.3-12.2,8.3c-5.8,0.6-12.2,0.7-17.3-2.7
		c-3.4-2.1-5.6-5.8-6.2-9.7c2.9-0.3,5.8-0.6,8.6-1.2c0.5,1.2,1,2.4,1.5,3.7c4.2,4,11,3.8,15.8,1c0.8-1.4,1.5-2.9,2.1-4.4
		c-0.9-1.8-2-3.5-3.9-4.3c-5.7-2.4-12.4-1.9-17.7-5.5c-3.9-2.3-5.4-7.1-5.1-11.4C762.6,182.5,764.3,179.2,767.3,177.3z"/>
	<path d="M259.2,174.8c3.3,0.2,6.8-0.5,10,0.6c3,11.7,7.6,23,10.8,34.7c4.1-11.8,7.8-23.7,11.8-35.5c3.3,0,6.5,0,9.8,0
		c-5.9,15.3-11.3,30.8-16.9,46.2c-1.8,5.5-3.9,11.7-9.5,14.4c-4.1,1.6-8.7,1.2-13,0.6c0.6-2.5,1.4-5,2.1-7.5c2.6,0.3,6,1.2,8-1.2
		c1.5-2.2,2.9-4.6,3.2-7.3C270.2,204.9,264.4,190,259.2,174.8z"/>
	<path d="M699.3,219.6c0.1-15-0.1-30,0.1-45c2.9,0.1,5.9,0.1,8.8,0c0,15-0.1,30,0.1,45C705.2,219.7,702.2,219.7,699.3,219.6z"/>
</g>
</svg>
