<svg width="14" height="14" viewBox="0 0 14 14" fill="none" xmlns="http://www.w3.org/2000/svg">
<g clip-path="url(#clip0_10_1394)">
<path d="M11.5085 0H2.49153C1.83092 0.000628247 1.19756 0.263329 0.730445 0.730445C0.263329 1.19756 0.000628247 1.83092 0 2.49153L0 11.5085C0.000628247 12.1691 0.263329 12.8024 0.730445 13.2696C1.19756 13.7367 1.83092 13.9994 2.49153 14H11.5085C12.1691 13.9994 12.8024 13.7367 13.2696 13.2696C13.7367 12.8024 13.9994 12.1691 14 11.5085V2.49153C13.9994 1.83092 13.7367 1.19756 13.2696 0.730445C12.8024 0.263329 12.1691 0.000628247 11.5085 0ZM2.49153 1.18644H11.5085C11.8544 1.18707 12.186 1.32477 12.4306 1.56938C12.6752 1.814 12.8129 2.14559 12.8136 2.49153V7.67864L10.4051 5.27017C10.2917 5.16251 10.1414 5.10249 9.98509 5.10249C9.82877 5.10249 9.67842 5.16251 9.56509 5.27017L6.51119 8.32407L4.96881 6.78407C4.91387 6.72854 4.84846 6.68446 4.77637 6.65437C4.70427 6.62428 4.62693 6.60879 4.54881 6.60879C4.4707 6.60879 4.39335 6.62428 4.32126 6.65437C4.24917 6.68446 4.18376 6.72854 4.12881 6.78407L1.18644 9.72881V2.49153C1.18707 2.14559 1.32477 1.814 1.56938 1.56938C1.814 1.32477 2.14559 1.18707 2.49153 1.18644Z" fill="white"/>
<path d="M6.47332 5.18688C6.99753 5.18688 7.42248 4.76193 7.42248 4.23773C7.42248 3.71352 6.99753 3.28857 6.47332 3.28857C5.94912 3.28857 5.52417 3.71352 5.52417 4.23773C5.52417 4.76193 5.94912 5.18688 6.47332 5.18688Z" fill="white"/>
</g>
<defs>
<clipPath id="clip0_10_1394">
<rect width="14" height="14" fill="white"/>
</clipPath>
</defs>
</svg>
