<svg width="14" height="14" viewBox="0 0 14 14" fill="none" xmlns="http://www.w3.org/2000/svg">
<g clip-path="url(#clip0_10_1415)">
<path d="M11.6266 0.957031H2.37344C1.06367 0.957031 0 2.0207 0 3.33047V10.6668C0 11.9793 1.06367 13.0402 2.37344 13.0402H11.6238C12.9363 13.0402 13.9973 11.9766 13.9973 10.6668V3.33047C14 2.0207 12.9363 0.957031 11.6266 0.957031ZM6.31094 2.06445C6.31094 1.86211 6.475 1.69531 6.68008 1.69531H7.32266C7.525 1.69531 7.6918 1.85937 7.6918 2.06445V2.70703C7.6918 2.90937 7.52773 3.07617 7.32266 3.07617H6.68008C6.47773 3.07617 6.31094 2.91211 6.31094 2.70703V2.06445ZM3.7625 2.06445C3.7625 1.86211 3.92656 1.69805 4.12891 1.69531H4.77148C4.97383 1.69531 5.14062 1.85938 5.14062 2.06172V2.70703C5.14062 2.90937 4.97656 3.07617 4.77148 3.07617H4.12891C3.92656 3.07617 3.7625 2.91211 3.7625 2.70703V2.06445ZM2.59219 11.9355C2.59219 12.1379 2.42812 12.3047 2.22305 12.3047H1.58047C1.37812 12.3047 1.21133 12.1406 1.21133 11.9355V11.293C1.21133 11.0906 1.37539 10.9238 1.58047 10.9238H2.22305C2.42539 10.9238 2.59219 11.0879 2.59219 11.293V11.9355ZM2.59219 2.70703C2.59219 2.90937 2.42812 3.07344 2.22305 3.07344H1.58047C1.37812 3.07344 1.21133 2.90937 1.21133 2.70703V2.06445C1.21133 1.86211 1.37539 1.69531 1.58047 1.69531H2.22305C2.42539 1.69531 2.59219 1.85937 2.59219 2.06445V2.70703ZM5.14062 11.9355C5.14062 12.1379 4.97656 12.3047 4.77422 12.3047H4.12891C3.92656 12.3047 3.75977 12.1406 3.75977 11.9355V11.293C3.75977 11.0906 3.92383 10.9266 4.12891 10.9266H4.77148C4.97383 10.9266 5.14062 11.0906 5.14062 11.293V11.9355ZM4.51172 8.66523V5.33477C4.51172 4.42422 5.49883 3.85547 6.28633 4.30938L9.17109 5.97461C9.95859 6.43125 9.95859 7.56875 9.17109 8.02266L6.28633 9.68789C5.49883 10.1445 4.51172 9.57578 4.51172 8.66523ZM7.68906 11.9355C7.68906 12.1379 7.525 12.3047 7.31992 12.3047H6.67734C6.475 12.3047 6.3082 12.1406 6.3082 11.9355V11.293C6.3082 11.0906 6.47227 10.9238 6.67734 10.9238H7.31992C7.52227 10.9238 7.68906 11.0879 7.68906 11.293V11.9355ZM10.2375 11.9355C10.2375 12.1379 10.0734 12.302 9.87109 12.3047H9.22851C9.02617 12.3047 8.85937 12.1406 8.85937 11.9355V11.293C8.85937 11.0906 9.02344 10.9238 9.22851 10.9238H9.87109C10.0734 10.9238 10.2375 11.0879 10.2375 11.293V11.9355ZM10.2375 2.70703C10.2375 2.90937 10.0734 3.07344 9.87109 3.07617H9.22851C9.02617 3.07617 8.86211 2.91211 8.85937 2.70977V2.06445C8.85937 1.86211 9.02344 1.69531 9.22851 1.69531H9.87109C10.0734 1.69531 10.2402 1.85937 10.2402 2.06445L10.2375 2.70703ZM12.7859 11.9355C12.7859 12.1379 12.6219 12.3047 12.4168 12.3047H11.7742C11.5719 12.3047 11.4051 12.1406 11.4051 11.9355V11.293C11.4051 11.0906 11.5691 10.9238 11.7742 10.9238H12.4168C12.6191 10.9238 12.7859 11.0879 12.7859 11.293V11.9355ZM12.7859 2.70703C12.7859 2.90937 12.6219 3.07617 12.4168 3.07617H11.7742C11.5719 3.07617 11.4051 2.91211 11.4051 2.70977V2.06445C11.4051 1.86211 11.5691 1.69531 11.7742 1.69531H12.4168C12.6191 1.69531 12.7859 1.85937 12.7859 2.06445V2.70703Z" fill="white"/>
</g>
<defs>
<clipPath id="clip0_10_1415">
<rect width="14" height="14" fill="white"/>
</clipPath>
</defs>
</svg>
